<?xml version="1.0" standalone="no"?>
<!DOCTYPE svg PUBLIC "-//W3C//DTD SVG 20010904//EN"
 "http://www.w3.org/TR/2001/REC-SVG-20010904/DTD/svg10.dtd">
<svg version="1.0" xmlns="http://www.w3.org/2000/svg"
 width="270.000000pt" height="235.000000pt" viewBox="0 0 270.000000 235.000000"
 preserveAspectRatio="xMidYMid meet">

<g transform="translate(0.000000,235.000000) scale(0.100000,-0.100000)"
fill="#000000" stroke="none">
<path d="M679 2169 c-26 -39 -70 -129 -63 -129 20 0 87 112 82 138 -2 13 -6
11 -19 -9z"/>
<path d="M2045 2110 c23 -43 40 -82 37 -85 -3 -3 0 -5 7 -5 7 0 11 -7 8 -15
-4 -8 -2 -17 4 -20 5 -4 6 -11 3 -17 -5 -7 -2 -8 6 -3 10 6 11 2 6 -19 -4 -18
-3 -25 4 -21 6 4 9 -2 7 -14 -4 -27 -17 -39 -17 -17 0 51 -98 277 -108 248 -2
-6 10 -41 26 -79 91 -211 90 -459 -3 -669 -27 -61 -30 -74 -17 -74 12 0 76
141 98 215 14 44 19 96 20 195 0 74 4 145 8 158 5 15 0 48 -13 90 -22 70 -96
212 -110 212 -5 0 10 -36 34 -80z"/>
<path d="M1800 2157 c0 -5 11 -23 25 -41 41 -54 57 -103 56 -182 0 -84 -20
-179 -57 -270 -36 -89 -25 -103 13 -17 61 136 83 291 55 389 -11 37 -91 142
-92 121z"/>
<path d="M571 1874 c0 -11 3 -14 6 -6 3 7 2 16 -1 19 -3 4 -6 -2 -5 -13z"/>
<path d="M2142 1850 c0 -19 2 -27 5 -17 2 9 2 25 0 35 -3 9 -5 1 -5 -18z"/>
<path d="M2148 1710 c-4 -58 -15 -134 -23 -169 -8 -35 -14 -66 -11 -68 2 -2
13 36 25 86 16 64 21 113 19 173 l-3 83 -7 -105z"/>
<path d="M852 1464 c-58 -208 -66 -248 -52 -273 11 -21 50 -28 84 -15 28 11
17 26 -13 19 -24 -5 -32 -2 -41 16 -14 25 -6 78 41 262 45 171 30 165 -19 -9z"/>
<path d="M2100 1448 c0 -7 -7 -26 -15 -42 -9 -16 -13 -32 -10 -35 8 -7 25 20
25 41 0 9 5 20 10 23 6 3 10 10 10 16 0 5 -4 9 -10 9 -5 0 -10 -6 -10 -12z"/>
<path d="M2 348 l3 -143 25 0 25 0 0 140 0 140 -28 3 -28 3 3 -143z"/>
<path d="M2452 468 c3 -21 9 -23 86 -28 58 -4 86 -9 92 -20 28 -43 -16 -70
-113 -70 l-68 0 3 -72 c3 -67 5 -73 26 -76 21 -3 22 0 22 52 l0 56 39 0 c37 0
41 -3 71 -55 24 -41 37 -55 54 -55 36 0 37 10 6 56 -17 23 -30 46 -30 51 0 4
12 19 25 32 36 33 34 84 -4 122 -28 28 -33 29 -121 29 -89 0 -91 -1 -88 -22z"/>
<path d="M90 225 c0 -24 3 -25 55 -25 52 0 55 1 55 25 0 24 -3 25 -55 25 -52
0 -55 -1 -55 -25z"/>
</g>
</svg>
